<svg xmlns="http://www.w3.org/2000/svg" id="Layer_2" viewBox="0 0 181.57 185.53">
  <defs>
    <style>
      .cls-1 {
        fill: #3b3b3b;
      }

      .cls-2 {
        fill: #8bc24a;
        stroke: #3b3b3b;
        stroke-width: 3px;
        stroke-miterlimit: 10;
      }
    </style>
  </defs>
  <g id="Layer_1-2" data-name="Layer_1">
    <g>
      <path class="cls-1"
        d="M 71.53 2.03 L 71.53 176.528 L 5.267 130.995 L 5.583 60.653 L 71.53 9.3 M 72.53 0 L 0 55.58 L 0 135.95 L 72.53 185.54 L 72.53 0 Z" />
      <polygon class="cls-1"
        points="124.4 149.45 93.76 149.45 93.76 123.41 124.4 123.41 124.4 92.77 150.45 92.77 150.45 123.41 163.26 123.41 163.26 55.58 72.53 0 72.53 185.53 124.4 157.18 124.4 149.45" />
      <polygon class="cls-2"
        points="181.07 123.41 150.44 123.41 150.44 92.77 124.39 92.77 124.39 123.41 93.75 123.41 93.75 149.45 124.39 149.45 124.39 180.09 150.44 180.09 150.44 149.45 181.07 149.45 181.07 123.41" />
    </g>
  </g>
</svg>